<svg width="324" height="324" viewBox="0 0 324 324" fill="white" xmlns="http://www.w3.org/2000/svg">
    <g clip-path="url(#clip0_7_54)">
        <path d="M185 161L176.5 161C155.237 161 138 143.763 138 122.5L138 27.0001L146.5 27.0001C167.763 27.0001 185 44.2372 185 65.5001L185 161Z" fill="white" />
        <path d="M119.556 59.9629C114.416 47.2736 99.793 40.9764 88.2409 48.3244C68.8384 60.6659 52.7486 77.7882 41.6232 98.2176C26.5197 125.952 21.5 158.065 27.4192 189.085C33.3384 220.105 49.8304 248.114 74.0851 268.337C98.3398 288.561 128.856 299.75 160.436 299.996C192.015 300.242 222.702 289.531 247.269 269.688C271.836 249.845 288.763 222.097 295.165 191.173C301.568 160.249 297.049 128.061 282.38 100.095C271.575 79.4947 255.754 62.1236 236.546 49.481C225.11 41.9537 210.391 48.0221 205.053 60.6297C199.715 73.2372 205.943 87.5562 216.54 96.2257C225.521 103.574 233.006 112.7 238.474 123.125C247.815 140.933 250.693 161.43 246.616 181.122C242.539 200.814 231.76 218.483 216.116 231.119C200.472 243.754 180.931 250.575 160.822 250.418C140.713 250.261 121.281 243.137 105.836 230.258C90.3909 217.38 79.8891 199.545 76.1199 179.792C72.3506 160.039 75.5471 139.59 85.1647 121.929C90.7947 111.591 98.4212 102.583 107.516 95.3754C118.247 86.8723 124.697 72.6522 119.556 59.9629Z" fill="white" />
    </g>
    <defs>
        <clipPath id="clip0_7_54">
            <rect width="324" height="324" fill="white" />
        </clipPath>
    </defs>
</svg>