<svg width="44" height="39" viewBox="0 0 44 39" fill="none" xmlns="http://www.w3.org/2000/svg">
<path d="M44 19.5C44 19.5 40.4631 39 22.3284 39C4.19364 39 0 19.5 0 19.5C0 19.5 4.19364 0 22.3284 0C40.4631 0 44 19.5 44 19.5Z" fill="white"/>
<path d="M37 19C37 27.2843 30.2843 34 22 34C13.7157 34 7 27.2843 7 19C7 10.7157 13.7157 4 22 4C30.2843 4 37 10.7157 37 19Z" fill="#E14148"/>
<path d="M30 19C30 23.4183 26.4183 27 22 27C17.5817 27 14 23.4183 14 19C14 14.5817 17.5817 11 22 11C26.4183 11 30 14.5817 30 19Z" fill="white"/>
</svg>
